<svg width="17" height="17" viewBox="0 0 17 17" fill="none" xmlns="http://www.w3.org/2000/svg">
<path d="M8.5 0C3.8165 0 0 3.8165 0 8.5C0 13.1835 3.8165 17 8.5 17C13.1835 17 17 13.1835 17 8.5C17 3.8165 13.1835 0 8.5 0ZM11.9 9.1375H9.1375V11.9C9.1375 12.2485 8.8485 12.5375 8.5 12.5375C8.1515 12.5375 7.8625 12.2485 7.8625 11.9V9.1375H5.1C4.7515 9.1375 4.4625 8.8485 4.4625 8.5C4.4625 8.1515 4.7515 7.8625 5.1 7.8625H7.8625V5.1C7.8625 4.7515 8.1515 4.4625 8.5 4.4625C8.8485 4.4625 9.1375 4.7515 9.1375 5.1V7.8625H11.9C12.2485 7.8625 12.5375 8.1515 12.5375 8.5C12.5375 8.8485 12.2485 9.1375 11.9 9.1375Z" fill="black"/>
</svg>
