<svg width="16" height="22" viewBox="0 0 16 22" fill="none" xmlns="http://www.w3.org/2000/svg">
<path d="M8 0C5.38 0 3.25 2.13 3.25 4.75C3.25 7.32 5.26 9.4 7.88 9.49C7.96 9.48 8.04 9.48 8.1 9.49C8.12 9.49 8.13 9.49 8.15 9.49C8.16 9.49 8.16 9.49 8.17 9.49C10.73 9.4 12.74 7.32 12.75 4.75C12.75 2.13 10.62 0 8 0Z" fill="black"/>
<path d="M13.7727 12.6598C10.6023 10.4467 5.43182 10.4467 2.23864 12.6598C0.795454 13.6712 0 15.0395 0 16.503C0 17.9665 0.795455 19.3229 2.22727 20.3223C3.81818 21.4408 5.90909 22 8 22C10.0909 22 12.1818 21.4408 13.7727 20.3223C15.2045 19.311 16 17.9546 16 16.4792C15.9886 15.0157 15.2045 13.6593 13.7727 12.6598Z" fill="black"/>
</svg>
